<?xml version="1.0" encoding="UTF-8" ?>
<!DOCTYPE svg PUBLIC "-//W3C//DTD SVG 1.1//EN" "http://www.w3.org/Graphics/SVG/1.1/DTD/svg11.dtd">
<svg width="161pt" height="128pt" viewBox="0 0 161 128" version="1.1" xmlns="http://www.w3.org/2000/svg">
<path fill="#ffffff" d=" M 0.00 0.00 L 161.00 0.00 L 161.00 69.01 C 159.99 51.15 149.47 35.10 135.43 24.53 C 121.76 14.31 105.31 6.94 88.04 6.48 C 80.51 6.16 72.98 7.12 65.64 8.75 C 60.42 9.72 55.35 11.34 50.47 13.42 C 50.20 11.59 49.90 9.76 49.40 7.97 C 46.91 8.02 45.08 10.02 43.19 11.38 C 41.29 7.52 39.24 3.74 37.04 0.05 C 34.58 3.83 32.53 7.87 30.89 12.07 C 28.83 10.41 26.61 8.97 24.42 7.50 C 24.09 9.32 23.79 11.13 23.50 12.95 C 18.71 11.18 13.86 9.57 8.88 8.43 C 9.96 13.53 11.59 18.51 13.83 23.22 C 11.65 23.48 9.50 23.89 7.35 24.28 C 8.78 26.58 10.25 28.86 11.96 30.95 C 7.80 32.55 3.82 34.59 0.09 37.03 C 3.75 39.23 7.52 41.25 11.36 43.13 C 9.83 45.23 8.48 47.46 7.21 49.73 C 9.14 49.98 11.08 50.22 13.02 50.44 C 11.67 55.19 10.27 59.93 8.89 64.67 C 9.38 64.78 10.35 64.99 10.83 65.10 C 9.94 77.70 12.19 90.56 18.44 101.63 C 24.84 113.86 34.95 126.17 49.53 128.00 L 0.00 128.00 L 0.00 0.00 Z" />
<path fill="#fad5e5" d=" M 30.89 12.07 C 32.53 7.87 34.58 3.83 37.04 0.05 C 39.24 3.74 41.29 7.52 43.19 11.38 C 40.54 13.79 38.43 16.72 36.50 19.72 C 34.81 17.05 33.08 14.37 30.89 12.07 Z" />
<path fill="#92b24f" d=" M 65.64 8.75 C 72.98 7.12 80.51 6.16 88.04 6.48 C 105.31 6.94 121.76 14.31 135.43 24.53 C 149.47 35.10 159.99 51.15 161.00 69.01 L 161.00 73.48 C 159.84 88.04 153.80 102.14 144.17 113.10 C 137.11 121.08 126.88 126.79 116.00 126.44 C 104.52 126.75 94.57 118.76 83.05 119.71 C 72.47 120.78 63.07 126.51 52.57 128.00 L 49.53 128.00 C 34.95 126.17 24.84 113.86 18.44 101.63 C 12.19 90.56 9.94 77.70 10.83 65.10 C 15.03 64.28 18.96 62.56 22.86 60.84 C 23.15 62.63 23.55 64.41 23.93 66.19 C 26.21 64.72 28.51 63.25 30.59 61.51 C 32.37 65.88 34.50 70.09 37.05 74.07 C 39.42 70.33 41.42 66.37 43.09 62.27 C 45.03 63.76 47.09 65.09 49.12 66.47 C 49.61 64.45 50.09 62.44 50.56 60.42 L 51.27 60.76 C 55.88 63.14 60.88 64.58 65.92 65.70 C 64.79 60.47 63.10 55.38 60.79 50.55 C 62.65 50.21 64.49 49.76 66.32 49.30 C 64.84 47.15 63.37 44.98 61.70 42.96 C 65.93 41.38 69.98 39.35 73.78 36.92 C 70.12 34.49 66.22 32.43 62.13 30.80 C 63.83 28.65 65.27 26.31 66.68 23.96 C 64.72 23.63 62.76 23.29 60.79 23.04 C 62.95 18.47 64.55 13.67 65.64 8.75 Z" />
<path fill="#f7b1cf" d=" M 24.42 7.50 C 26.61 8.97 28.83 10.41 30.89 12.07 C 33.08 14.37 34.81 17.05 36.50 19.72 C 38.43 16.72 40.54 13.79 43.19 11.38 C 45.08 10.02 46.91 8.02 49.40 7.97 C 49.90 9.76 50.20 11.59 50.47 13.42 C 50.60 16.92 50.05 20.39 49.47 23.82 C 53.21 23.18 57.00 22.68 60.79 23.04 C 62.76 23.29 64.72 23.63 66.68 23.96 C 65.27 26.31 63.83 28.65 62.13 30.80 C 59.59 33.28 56.53 35.10 53.41 36.75 C 56.36 38.55 59.30 40.45 61.70 42.96 C 63.37 44.98 64.84 47.15 66.32 49.30 C 64.49 49.76 62.65 50.21 60.79 50.55 C 57.20 50.74 53.62 50.33 50.06 50.01 C 50.46 53.59 50.85 57.18 51.27 60.76 L 50.56 60.42 C 50.09 62.44 49.61 64.45 49.12 66.47 C 47.09 65.09 45.03 63.76 43.09 62.27 C 40.41 60.01 38.33 57.16 36.27 54.35 C 34.46 56.80 32.69 59.29 30.59 61.51 C 28.51 63.25 26.21 64.72 23.93 66.19 C 23.55 64.41 23.15 62.63 22.86 60.84 C 22.61 57.03 23.18 53.24 23.77 49.50 C 20.24 50.22 16.63 50.74 13.02 50.44 C 11.08 50.22 9.14 49.98 7.21 49.73 C 8.48 47.46 9.83 45.23 11.36 43.13 C 13.80 40.54 16.73 38.49 19.74 36.61 C 17.01 34.93 14.30 33.17 11.96 30.95 C 10.25 28.86 8.78 26.58 7.35 24.28 C 9.50 23.89 11.65 23.48 13.83 23.22 C 17.19 23.12 20.55 23.47 23.88 23.90 C 23.48 20.27 23.13 16.60 23.50 12.95 C 23.79 11.13 24.09 9.32 24.42 7.50 Z" />
<path fill="#fad5e5" d=" M 8.88 8.43 C 13.86 9.57 18.71 11.18 23.50 12.95 C 23.13 16.60 23.48 20.27 23.88 23.90 C 20.55 23.47 17.19 23.12 13.83 23.22 C 11.59 18.51 9.96 13.53 8.88 8.43 Z" />
<path fill="#fad5e5" d=" M 50.47 13.42 C 55.35 11.34 60.42 9.72 65.64 8.75 C 64.55 13.67 62.95 18.47 60.79 23.04 C 57.00 22.68 53.21 23.18 49.47 23.82 C 50.05 20.39 50.60 16.92 50.47 13.42 Z" />
<path fill="#fad5e5" d=" M 0.09 37.03 C 3.82 34.59 7.80 32.55 11.96 30.95 C 14.30 33.17 17.01 34.93 19.74 36.61 C 16.73 38.49 13.80 40.54 11.36 43.13 C 7.52 41.25 3.75 39.23 0.09 37.03 Z" />
<path fill="#fad5e5" d=" M 53.41 36.75 C 56.53 35.10 59.59 33.28 62.13 30.80 C 66.22 32.43 70.12 34.49 73.78 36.92 C 69.98 39.35 65.93 41.38 61.70 42.96 C 59.30 40.45 56.36 38.55 53.41 36.75 Z" />
<path fill="#fad5e5" d=" M 13.02 50.44 C 16.63 50.74 20.24 50.22 23.77 49.50 C 23.18 53.24 22.61 57.03 22.86 60.84 C 18.96 62.56 15.03 64.28 10.83 65.10 C 10.35 64.99 9.38 64.78 8.89 64.67 C 10.27 59.93 11.67 55.19 13.02 50.44 Z" />
<path fill="#fad5e5" d=" M 50.06 50.01 C 53.62 50.33 57.20 50.74 60.79 50.55 C 63.10 55.38 64.79 60.47 65.92 65.70 C 60.88 64.58 55.88 63.14 51.27 60.76 C 50.85 57.18 50.46 53.59 50.06 50.01 Z" />
<path fill="#fad5e5" d=" M 30.59 61.51 C 32.69 59.29 34.46 56.80 36.27 54.35 C 38.33 57.16 40.41 60.01 43.09 62.27 C 41.42 66.37 39.42 70.33 37.05 74.07 C 34.50 70.09 32.37 65.88 30.59 61.51 Z" />
<path fill="#000000" d=" M 91.69 78.69 C 94.97 69.94 98.35 61.12 103.50 53.26 C 105.69 54.54 107.91 55.78 110.15 56.98 C 103.94 66.33 99.38 76.64 94.90 86.90 C 90.42 97.56 86.01 108.31 82.86 119.46 C 75.23 113.31 66.57 108.66 57.52 104.96 C 58.07 103.53 58.62 102.10 59.17 100.67 C 66.68 104.06 74.12 107.75 80.74 112.70 C 84.00 101.25 87.60 89.88 91.69 78.69 Z" />
<path fill="#ffffff" d=" M 144.17 113.10 C 153.80 102.14 159.84 88.04 161.00 73.48 L 161.00 128.00 L 52.57 128.00 C 63.07 126.51 72.47 120.78 83.05 119.71 C 94.57 118.76 104.52 126.75 116.00 126.44 C 126.88 126.79 137.11 121.08 144.17 113.10 Z" />
</svg>
